<svg xmlns="http://www.w3.org/2000/svg" viewBox="0 0 512 512">
    <circle cx="256" cy="256" r="250" fill="#f9e3b7" />
    <circle cx="180" cy="190" r="25" fill="#8a5d3b" />
    <circle cx="280" cy="140" r="20" fill="#8a5d3b" />
    <circle cx="330" cy="220" r="25" fill="#8a5d3b" />
    <circle cx="220" cy="290" r="28" fill="#8a5d3b" />
    <circle cx="320" cy="330" r="22" fill="#8a5d3b" />
    <circle cx="160" cy="300" r="18" fill="#8a5d3b" />
    <path d="M256 30c-124.6 0-226 101.4-226 226s101.4 226 226 226 226-101.4 226-226S380.6 30 256 30zm0 432c-113.9 0-206-92.1-206-206S142.1 50 256 50s206 92.1 206 206-92.1 206-206 206z" fill="#8a5d3b" />
    <path d="M385 145c-4-4-10.4-4-14.4 0l-6 6c-4 4-4 10.4 0 14.4s10.4 4 14.4 0l6-6c4-4 4-10.4 0-14.4zM327 96c-4-4-10.4-4-14.4 0l-4 4c-4 4-4 10.4 0 14.4s10.4 4 14.4 0l4-4c4-4 4-10.4 0-14.4zM127 367c-4-4-10.4-4-14.4 0l-6 6c-4 4-4 10.4 0 14.4s10.4 4 14.4 0l6-6c4-4 4-10.4 0-14.4z" fill="#8a5d3b" />
</svg>