<?xml version="1.0" encoding="UTF-8"?>
<svg id="Calque_2" data-name="Calque 2" xmlns="http://www.w3.org/2000/svg" viewBox="0 0 250 112.08">
  <defs>
    <style>
      .cls-1 {
        fill: #4ebdc6;
      }

      .cls-2 {
        fill: #fff;
      }
    </style>
  </defs>
  <g id="Calque_2-2" data-name="Calque 2">
    <g id="Calque_1-2" data-name="Calque 1-2">
      <path class="cls-2" d="M76.52,87.38c-16.5,1.71-20.49-4.93-20.49-20.87v-15.5l12.71-3.42v19.49c0,7.78,1.99,9.2,7.78,8.91v11.38h0Z"/>
      <g>
        <path class="cls-1" d="M165.92,8.47c1.01-1.41,2.76-2.18,5-2.18,4.27,0,5.86,2.06,5.86,6.66v12.16h-4.14v-11.73c0-2.42-.67-3.44-2.73-3.44-1.75,0-2.85.98-2.85,3.5v11.66h-4.14v-11.63c0-2.52-.67-3.53-2.73-3.53-1.72,0-2.82.95-2.82,3.04v12.13h-4.14V6.66h3.59l.19,1.26c1.04-1.07,2.42-1.63,4.51-1.63s3.5.67,4.42,2.18h0Z"/>
        <path class="cls-1" d="M196.86,19.59c-.12,3.84-1.97,5.89-6.69,5.89s-7.03-2.15-7.03-7.24v-4.85c0-4.57,2.27-7.09,7-7.09s6.88,2.18,6.88,7.03v3.8h-9.82v1.54c0,2.27.83,3.41,2.95,3.41s2.79-.89,2.89-2.49h3.84,0ZM187.2,13.41v.55h5.89v-.67c0-2.42-.8-3.56-2.92-3.56s-2.98,1.04-2.98,3.68Z"/>
        <path class="cls-1" d="M212.82,7.58V1.41h4.11v23.7h-3.62l-.19-1.23c-.92,1.04-2.49,1.59-4.27,1.59-3.96,0-5.92-2.52-5.92-7.24v-4.91c0-4.88,2.7-7.03,6.05-7.03,1.78,0,3.01.49,3.84,1.29h0ZM212.79,13.2c0-2.42-1.2-3.25-2.85-3.25-1.78,0-2.85.92-2.85,3.56v4.79c0,2.49.83,3.56,2.82,3.56,1.84,0,2.89-.92,2.89-3.07v-5.58h0Z"/>
        <path class="cls-1" d="M227.96,3.96h-4.14V0h4.14v3.96ZM227.96,25.11h-4.14V6.66h4.14v18.45h0Z"/>
        <path class="cls-1" d="M244.25,23.7c-.98,1.14-2.58,1.78-4.63,1.78-3.13,0-5.31-1.84-5.31-5.25,0-3.71,2.12-5.8,7.15-5.8.8,0,1.81.09,2.67.19v-1.87c0-2.12-.89-3.04-2.7-3.04s-2.85.8-2.85,2.95h-3.71c0-4.54,2.27-6.35,6.6-6.35,3.93,0,6.6,1.59,6.6,6.35v12.46h-3.65l-.15-1.41h0ZM244.13,17.5c-.64-.12-1.75-.19-2.33-.19-2.49,0-3.41.89-3.41,2.58,0,1.41.86,2.18,2.55,2.18s3.19-1.17,3.19-3.25v-1.32h0Z"/>
      </g>
      <path class="cls-2" d="M104.2,87.38c-16.5,1.71-20.49-4.93-20.49-20.87V6.32h12.71v60.77c0,7.78,1.99,9.2,7.78,8.91v11.38h0Z"/>
      <path class="cls-2" d="M132.66,87.38c-16.5,1.71-20.49-4.93-20.49-20.87V6.32h12.71v60.77c0,7.78,1.99,9.2,7.78,8.91v11.38h0Z"/>
      <path class="cls-2" d="M183.94,82.92c-3.22,3.32-7.4,5.03-14.13,5.03-11.76,0-16.6-6.74-16.6-20.49v-29.15h12.8v27.82c0,7.4,1.9,10.62,8.25,10.62,5.41,0,8.54-2.94,8.54-9.58v-28.86h12.8v48.49h-11.1l-.57-3.89h0Z"/>
      <path class="cls-2" d="M219.46,83.97v28.11h-12.71V38.32h11.19l.57,3.8c2.84-3.22,7.68-4.93,13.19-4.93,12.23,0,18.3,7.78,18.3,22.38v6.67c0,15.08-8.35,21.72-18.68,21.72-5.5,0-9.29-1.52-11.85-3.98h0ZM219.55,66.61c0,7.49,3.7,10.06,8.82,10.06,5.5,0,8.82-2.84,8.82-11v-6.29c0-7.68-2.56-11-8.72-11-5.69,0-8.91,2.84-8.91,9.48v8.76h0Z"/>
      <path class="cls-1" d="M62.48,43.26c3.41,0,6.16-2.76,6.16-6.14,0-.96-.22-1.96-.71-2.95-1.08-2.19-2.04-3.69-2.88-5.17-.83-1.49-1.54-2.96-2.15-5.16-.05-.19-.23-.33-.43-.33s-.38.14-.43.33c-.61,2.21-1.31,3.68-2.15,5.16-.83,1.49-1.8,2.98-2.88,5.17-.48.99-.71,1.99-.71,2.95,0,3.37,2.75,6.14,6.16,6.14h0Z"/>
      <path class="cls-2" d="M15.15,54.14c1.37-1.06,2.94-1.87,4.81-2.39l28.82-8.01,2.39-13.19-32.87,9.13c-2.94.88-5.4,2.02-7.66,3.62-1.7,1.2-3.22,2.6-4.54,4.15-1.98,2.32-3.52,4.99-4.62,7.84-.65,1.7-1.14,3.47-1.48,5.29l9.68,2.22c.12-.47.26-.93.41-1.37.42-1.22.95-2.35,1.58-3.38.94-1.54,2.1-2.85,3.47-3.9h0Z"/>
      <path class="cls-2" d="M33.39,30.22v-2.04c0-6.7,2.93-9.44,9.73-9.44h10.11l2.28-12.16h-14.28c-14.17,0-20.59,5.95-20.59,21.34v5.85l12.75-3.54h0Z"/>
      <path class="cls-2" d="M21.32,56.63c-.23.06-.46.14-.68.22v29.97h12.75v-33.54s-12.07,3.36-12.07,3.36Z"/>
    </g>
  </g>
</svg>