<svg width="13" height="14" viewBox="0 0 13 14" fill="none" xmlns="http://www.w3.org/2000/svg">
<path d="M6.5 12.0622L9.59356 8.96856C11.3021 7.26006 11.3021 4.48995 9.59356 2.78141C7.88506 1.07286 5.11495 1.07286 3.40641 2.78141C1.69786 4.48995 1.69786 7.26006 3.40641 8.96856L6.5 12.0622ZM6.5 13.8299L2.52252 9.8525C0.325825 7.65575 0.325825 4.09422 2.52252 1.89752C4.71922 -0.299175 8.28075 -0.299175 10.4775 1.89752C12.6742 4.09422 12.6742 7.65575 10.4775 9.8525L6.5 13.8299ZM6.5 7.125C7.19037 7.125 7.75 6.56537 7.75 5.875C7.75 5.18464 7.19037 4.625 6.5 4.625C5.80963 4.625 5.25 5.18464 5.25 5.875C5.25 6.56537 5.80963 7.125 6.5 7.125ZM6.5 8.375C5.11929 8.375 4 7.25569 4 5.875C4 4.49429 5.11929 3.375 6.5 3.375C7.88069 3.375 9 4.49429 9 5.875C9 7.25569 7.88069 8.375 6.5 8.375Z" fill="#01122E"/>
</svg>
