<svg width="15" height="15" viewBox="0 0 15 15" fill="none" xmlns="http://www.w3.org/2000/svg">
<path d="M8.125 0.625L8.12563 2.53876C10.387 2.82103 12.1793 4.61352 12.4613 6.875H14.375V8.125L12.4613 8.12563C12.179 10.3868 10.3868 12.179 8.12563 12.4613L8.125 14.375H6.875V12.4613C4.61352 12.1793 2.82103 10.387 2.53876 8.12563L0.625 8.125V6.875H2.53868C2.8207 4.61331 4.61331 2.8207 6.875 2.53868V0.625H8.125ZM7.5 3.75C5.42893 3.75 3.75 5.42893 3.75 7.5C3.75 9.57106 5.42893 11.25 7.5 11.25C9.57106 11.25 11.25 9.57106 11.25 7.5C11.25 5.42893 9.57106 3.75 7.5 3.75ZM7.5 6.25C8.19037 6.25 8.75 6.80963 8.75 7.5C8.75 8.19037 8.19037 8.75 7.5 8.75C6.80963 8.75 6.25 8.19037 6.25 7.5C6.25 6.80963 6.80963 6.25 7.5 6.25Z" fill="black"/>
</svg>
