<svg viewBox="0 0 7 7" fill="none" xmlns="http://www.w3.org/2000/svg">
<path d="M0.138538 6.85766C-0.048346 6.67513 -0.0439998 6.35351 0.138538 6.17532L2.81141 3.4981L0.138538 0.825227C-0.0439998 0.647036 -0.048346 0.329768 0.138538 0.138538C0.325422 -0.048346 0.64269 -0.0439998 0.825227 0.138538L3.4981 2.81141L6.17097 0.138538C6.35786 -0.0439998 6.66643 -0.0439998 6.85766 0.142884C7.04889 0.325422 7.04455 0.64269 6.86201 0.825227L4.18914 3.4981L6.86201 6.17532C7.04455 6.35786 7.04455 6.67078 6.85766 6.85766C6.67078 7.04889 6.35786 7.04455 6.17097 6.86201L3.4981 4.18914L0.825227 6.86201C0.64269 7.04455 0.329768 7.04455 0.138538 6.85766Z" fill="black"/>
</svg>
